<?xml version="1.0" encoding="UTF-8"?>
<svg xmlns="http://www.w3.org/2000/svg" viewBox="0 0 2116.44 691.26">
  <g fill="#0b0b0c">
    <path d="M1276.12,283.08c-18.05-4.71-72.4-10.46-106.73-23.38-26.65-10.03-28.19-47.55-2.43-59.7,40.67-19.2,111.62.99,100.58,54.15h101.23c26.07-188.45-340.67-189.63-336.46-14.86,2.59,107.79,134.15,100.2,205.69,124.28,60.25,20.28,37.74,61.32-14.59,66.68-42.94,4.4-94.27-9.99-93.54-61.94-2.36-.49-95.82,0-95.82,0-8.24,20,1.23,55.15,11.33,73.49,62.27,113.07,346.08,94.89,336.4-58.76-3.95-62.7-51.48-85.81-105.66-99.96Z"/>
    <path d="M2016.03,126.46l-84.6,230.74c-24.17,53.98-56.2,68.58-96.69,68.58-32.6,0-66.89-14.05-69.69-67.73V126.46h-90.69v276.78c0,73.5,122.95,138.89,207.04,107.99l-59.03,180.04,111.24-1.39,182.83-563.41h-100.41Z"/>
    <path d="M213.85,201.82l35.55-88.73-147.43-.06L97.08,0H0v344.56c0,93.22,149.26,182.27,238.1,163.86l-.09-90.36c-149.91,5-143.27-97.04-136.04-214.77l111.88-1.47Z"/>
    <path d="M1613.58,211.93l35.55-88.73-147.43-.06-4.89-113.03h-97.08v344.56c0,93.22,149.26,182.27,238.1,163.86l-.09-90.36c-149.91,5-143.27-97.04-136.04-214.77l111.88-1.47Z"/>
    <path d="M667.65,408.31v-221.88c0-83.85-137.86-95.06-175.48-31.8l-118.48,257.02V113.02h-96.87v333.66c16.07,95.04,141.03,88.12,178.34,24.65,39.9-67.86,115.62-249.87,115.62-249.87v221.88c0,28.29,23.48,73.52,69.47,74.08,108,1.31,121.73-76.03,149.23-142.58,35.88-86.87,70.86-175.05,101.99-263.48h-103.56l-120.26,296.95Z"/>
    <polygon points="910.67 110.18 910.67 514.6 1011.7 514.6 1011.19 110.18 910.67 110.18"/>
  </g>
</svg>
